<svg xmlns="http://www.w3.org/2000/svg" version="1.1" xmlns:xlink="http://www.w3.org/1999/xlink" xmlns:svgjs="http://svgjs.dev/svgjs" width="1000" height="1000" viewBox="0 0 1000 1000"><rect width="1000" height="1000" fill="#046380"></rect><g transform="matrix(0.7,0,0,0.7,149.57575757575756,282.1265587044535)"><svg viewBox="0 0 396 247" data-background-color="#046380" preserveAspectRatio="xMidYMid meet" height="623" width="1000" xmlns="http://www.w3.org/2000/svg" xmlns:xlink="http://www.w3.org/1999/xlink"><g id="tight-bounds" transform="matrix(1,0,0,1,0.2400000000000091,-0.09999999999999432)"><svg viewBox="0 0 395.52 247.2" height="247.2" width="395.52"><g><svg></svg></g><g><svg viewBox="0 0 395.52 247.2" height="247.2" width="395.52"><g transform="matrix(1,0,0,1,75.54432000000001,81.2713378711729)"><svg viewBox="0 0 244.43135999999996 84.6573242576542" height="84.6573242576542" width="244.43135999999996"><g><svg viewBox="0 0 404.29972802015357 140.0267673193961" height="84.6573242576542" width="244.43135999999996"><g><rect width="4.22421915824834" height="121.58619448862179" x="255.4895253357286" y="9.220286415387157" fill="#ffffff" opacity="1" stroke-width="0" stroke="transparent" fill-opacity="1" class="rect-i$-0" data-fill-palette-color="primary" rx="1%" id="i$-0" data-palette-color="#ffffff"></rect></g><g transform="matrix(1,0,0,1,0,19.35246928943897)"><svg viewBox="0 0 244.43135999999996 101.32182874051816" height="101.32182874051816" width="244.43135999999996"><g id="textblocktransform"><svg viewBox="0 0 244.43135999999996 101.32182874051816" height="101.32182874051816" width="244.43135999999996" id="textblock"><g><svg viewBox="0 0 244.43135999999996 46.84154821213778" height="46.84154821213778" width="244.43135999999996"><g transform="matrix(1,0,0,1,0,0)"><svg width="244.43135999999996" viewBox="5 -34.55 182.88 35.05" height="46.84154821213778" data-palette-color="#ffffff"><path d="M10.05-34.05Q15.5-34.05 18.93-30.45 22.35-26.85 22.35-17.4L22.35-17.4Q22.35-7.75 18.85-3.88 15.35 0 10.25 0L10.25 0 5 0 5-34.05 10.05-34.05ZM10.05-33L6.1-33 6.1-1.05 10.3-1.05Q15-1.05 18.07-4.67 21.15-8.3 21.15-17.4L21.15-17.4Q21.15-26.5 18.05-29.75 14.95-33 10.05-33L10.05-33ZM47.65 0L46.5 0 43.65-10.15 30.8-10.15 27.95 0 26.9 0 36.55-34.05 37.95-34.05 47.65 0ZM37.25-33.15L31.1-11.2 43.35-11.2 37.25-33.15ZM49.65-34.05L68.05-34.05 67.95-33 59.4-33 59.4 0 58.25 0 58.25-33 49.65-33 49.65-34.05ZM90.74 0L89.59 0 86.74-10.15 73.89-10.15 71.04 0 69.99 0 79.64-34.05 81.04-34.05 90.74 0ZM80.34-33.15L74.19-11.2 86.44-11.2 80.34-33.15ZM92.74-34.05L111.14-34.05 111.04-33 102.49-33 102.49 0 101.34 0 101.34-33 92.74-33 92.74-34.05ZM125.84-34.55Q130.99-34.55 133.91-30.15 136.84-25.75 136.84-17L136.84-17Q136.84-8.4 133.96-3.95 131.09 0.5 125.84 0.5L125.84 0.5Q120.74 0.5 117.79-3.95 114.84-8.4 114.84-16.95L114.84-16.95Q114.84-25.55 117.81-30.05 120.79-34.55 125.84-34.55L125.84-34.55ZM125.84-33.5Q121.29-33.5 118.64-29.35 115.99-25.2 115.99-16.95L115.99-16.95Q115.99-8.8 118.64-4.7 121.29-0.6 125.84-0.6L125.84-0.6Q130.59-0.6 133.11-4.67 135.64-8.75 135.64-17L135.64-17Q135.64-25.35 133.06-29.43 130.49-33.5 125.84-33.5L125.84-33.5ZM161.59-34.05L161.59-8.6Q161.59-4.6 159.44-2.05 157.28 0.5 153.03 0.5L153.03 0.5Q148.69 0.5 146.56-2.05 144.44-4.6 144.44-8.6L144.44-8.6 144.44-34.05 145.53-34.05 145.53-8.7Q145.53-5.05 147.38-2.83 149.24-0.6 153.03-0.6L153.03-0.6Q156.84-0.6 158.66-2.85 160.49-5.1 160.49-8.7L160.49-8.7 160.49-34.05 161.59-34.05ZM187.88 0L186.63 0 178.88-16.3Q177.68-16.2 177.08-16.2L177.08-16.2 172.18-16.2 172.18 0 171.08 0 171.08-34.05 176.43-34.05Q181.78-34.05 184.18-31.78 186.58-29.5 186.58-25.2L186.58-25.2Q186.58-21.65 184.86-19.43 183.13-17.2 179.98-16.5L179.98-16.5 187.88 0ZM176.88-17.25Q185.38-17.25 185.38-25.2L185.38-25.2Q185.38-29.1 183.33-31.05 181.28-33 176.33-33L176.33-33 172.18-33 172.18-17.25 176.88-17.25Z" opacity="1" transform="matrix(1,0,0,1,0,0)" fill="#ffffff" class="undefined-text-0" data-fill-palette-color="primary" id="text-0"></path></svg></g></svg></g><g transform="matrix(1,0,0,1,126.27594450979117,57.89971354786642)"><svg viewBox="0 0 118.15541549020878 43.42211519265173" height="43.42211519265173" width="118.15541549020878"><g transform="matrix(1,0,0,1,0,0)"><svg width="118.15541549020878" viewBox="0.6 -36.15 99.99000000000001 36.75" height="43.42211519265173" data-palette-color="#ffffff"><path d="M8.15 0.55Q5.4 0.55 4.2-1.3 3-3.15 3-5.85L3-5.85 3-22.2 0.6-22.2 0.6-26.3 3-26.3 3.9-33.65 7.7-33.65 7.7-26.3 11.35-26.3 11.35-22.2 7.7-22.2 7.7-5.8Q7.7-4.7 8.28-4.1 8.85-3.5 9.95-3.5L9.95-3.5 11.35-3.5 11.35-0.15Q10.8 0.15 9.88 0.35 8.95 0.55 8.15 0.55L8.15 0.55ZM15 0L15-26.3 18.7-26.3 19.3-22.7 19.6-22.7Q21-26.9 24.1-26.9L24.1-26.9Q25.3-26.9 26.2-26.5L26.2-26.5 26.2-21.75 24.6-21.75Q22.45-21.75 21.07-20.3 19.7-18.85 19.7-15.6L19.7-15.6 19.7 0 15 0ZM34.7 0.6Q32.09 0.6 30-1.03 27.89-2.65 27.89-6.8L27.89-6.8Q27.89-11.85 31.32-13.8 34.75-15.75 41.09-15.75L41.09-15.75 41.09-18.9Q41.09-20.8 40.3-21.83 39.5-22.85 37.4-22.85L37.4-22.85Q35.4-22.85 34.52-21.78 33.65-20.7 33.65-19.15L33.65-19.15 33.65-18.5 29-18.5Q28.95-18.8 28.95-19.6L28.95-19.6Q28.95-23.05 31.3-24.98 33.65-26.9 37.55-26.9L37.55-26.9Q41.65-26.9 43.72-24.95 45.8-23 45.8-19.4L45.8-19.4 45.8-5.25Q45.8-4.4 46.2-3.95 46.59-3.5 47.2-3.5L47.2-3.5 48.7-3.5 48.7-0.2Q47.59 0.45 45.75 0.45L45.75 0.45Q44.09 0.45 42.95-0.43 41.8-1.3 41.4-2.85L41.4-2.85 41.15-2.85Q38.9 0.6 34.7 0.6L34.7 0.6ZM36.15-3.5Q38.2-3.5 39.65-5.2 41.09-6.9 41.09-9.75L41.09-9.75 41.09-11.85Q37.09-11.85 34.92-10.85 32.75-9.85 32.75-7.15L32.75-7.15Q32.75-5.2 33.57-4.35 34.4-3.5 36.15-3.5L36.15-3.5ZM57.44 0L49.69-26.3 54.74-26.3 58.29-13.6Q58.54-12.7 58.77-11.73 58.99-10.75 59.24-9.85L59.24-9.85Q59.94-6.9 60.04-6.55L60.04-6.55 60.24-6.55 60.79-8.95Q61.59-12.4 61.94-13.7L61.94-13.7 65.39-26.3 70.14-26.3 62.39 0 57.44 0ZM82.54 0.6Q77.49 0.6 74.99-2.7 72.49-6 72.49-13.15L72.49-13.15Q72.49-20.2 74.97-23.55 77.44-26.9 82.44-26.9L82.44-26.9Q86.94-26.9 89.14-23.83 91.34-20.75 91.34-14.1L91.34-14.1 91.34-11.85 77.39-11.85Q77.44-7.55 78.67-5.5 79.89-3.45 82.59-3.45L82.59-3.45Q84.44-3.45 85.57-4.95 86.69-6.45 86.69-9.05L86.69-9.05 91.34-9.05Q91.34-4.55 88.92-1.98 86.49 0.6 82.54 0.6L82.54 0.6ZM77.44-15.75L86.44-15.75Q86.44-19.2 85.44-21.03 84.44-22.85 82.44-22.85L82.44-22.85Q80.04-22.85 78.87-21.1 77.69-19.35 77.44-15.75L77.44-15.75ZM95.89 0L95.89-36.15 100.59-36.15 100.59 0 95.89 0Z" opacity="1" transform="matrix(1,0,0,1,0,0)" fill="#ffffff" class="undefined-text-1" data-fill-palette-color="secondary" id="text-1"></path></svg></g></svg></g></svg></g></svg></g><g transform="matrix(1,0,0,1,270.7719098297056,0)"><svg viewBox="0 0 133.52781819044796 140.0267673193961" height="140.0267673193961" width="133.52781819044796"><g><svg xmlns="http://www.w3.org/2000/svg" xmlns:xlink="http://www.w3.org/1999/xlink" version="1.1" x="0" y="0" viewBox="18.000000000000007 16.380180888064743 64.1 67.21981911193525" enable-background="new 0 0 100 100" xml:space="preserve" height="140.0267673193961" width="133.52781819044796" class="icon-icon-0" data-fill-palette-color="accent" id="icon-0"><path d="M77.3 54.3h-7.1v-2.8c0-1.9-1.5-3.4-3.4-3.4H54.9c-1.9 0-3.4 1.5-3.4 3.4v2.8H44c-2.6 0-4.8 2.2-4.8 4.8v19.3c0 2.6 2.2 4.8 4.8 4.8h33.3c2.6 0 4.8-2.2 4.8-4.8V59.1C82.1 56.4 79.9 54.3 77.3 54.3zM53 51.5c0-1.1 0.9-2 2-2h11.8c1.1 0 2 0.9 2 2v2.8h-1v-1.7c0-1.2-1-2.2-2.2-2.2h-9.2c-1.2 0-2.2 1-2.2 2.2v1.7H53V51.5zM66.3 54.3H55.5v-1.7c0-0.4 0.4-0.8 0.8-0.8h9.2c0.4 0 0.8 0.4 0.8 0.8V54.3zM80.6 78.4c0 1.9-1.5 3.4-3.4 3.4H44c-1.9 0-3.4-1.5-3.4-3.4V59.1c0-1.9 1.5-3.4 3.4-3.4h8.2c0 0 0.1 0 0.1 0h17.2c0 0 0.1 0 0.1 0h7.7c1.9 0 3.4 1.5 3.4 3.4V78.4zM46.9 57.2v22.4c0 0.4-0.3 0.7-0.7 0.7s-0.7-0.3-0.7-0.7V57.2c0-0.4 0.3-0.7 0.7-0.7S46.9 56.8 46.9 57.2zM75.4 57.2v22.4c0 0.4-0.3 0.7-0.7 0.7-0.4 0-0.7-0.3-0.7-0.7V57.2c0-0.4 0.3-0.7 0.7-0.7C75.1 56.5 75.4 56.8 75.4 57.2zM70.8 59.6h-9.3c-0.4 0-0.7 0.3-0.7 0.7v4.9c0 0.4 0.3 0.7 0.7 0.7h9.3c0.4 0 0.7-0.3 0.7-0.7v-4.9C71.5 59.9 71.2 59.6 70.8 59.6zM70.1 64.4h-2.4l0.8-0.7c0.3-0.3 0.3-0.7 0-1-0.3-0.3-0.7-0.3-1 0l-1.7 1.7c0 0 0 0 0 0h-0.8l1.5-1.5c0.3-0.3 0.3-0.7 0-1-0.3-0.3-0.7-0.3-1 0l-2.5 2.5c0 0 0 0 0 0h-0.6V61h7.9V64.4zM70.8 66.7H67c-0.4 0-0.7 0.3-0.7 0.7v3.7c0 0.4 0.3 0.7 0.7 0.7h3.8c0.4 0 0.7-0.3 0.7-0.7v-3.7C71.5 67.1 71.2 66.7 70.8 66.7zM70.1 70.4h-2.4v-2.3h2.4V70.4zM64 66.7h-2.5c-0.4 0-0.7 0.3-0.7 0.7v2.4c0 0.4 0.3 0.7 0.7 0.7H64c0.4 0 0.7-0.3 0.7-0.7v-2.4C64.7 67.1 64.4 66.7 64 66.7zM63.3 69.2h-1.1v-1h1.1V69.2zM70.8 72.4h-2.5c-0.4 0-0.7 0.3-0.7 0.7v2.4c0 0.4 0.3 0.7 0.7 0.7h2.5c0.4 0 0.7-0.3 0.7-0.7v-2.4C71.5 72.7 71.2 72.4 70.8 72.4zM70.1 74.8H69v-1h1.1V74.8zM36.1 79.5H22.3c-1.6 0-3-1.3-3-3v-26c0-1.6 1.3-3 3-3h18.4c1.6 0 3 1.2 3 2.8v1.4c0 0.4 0.3 0.7 0.7 0.7 0.4 0 0.7-0.3 0.7-0.7v-1.4c0-2.3-2-4.2-4.4-4.2h-2.7V29.6c0-1.2-1-2.2-2.2-2.2h-8.9c-1.2 0-2.2 1-2.2 2.2l0 16.6h-2.3c-2.4 0-4.4 2-4.4 4.4v26c0 2.2 1.7 4 3.8 4.3 0.1 1.5 1.4 2.7 2.9 2.7 1.5 0 2.8-1.2 2.9-2.7h8.6c0.4 0 0.7-0.3 0.7-0.7C36.9 79.9 36.5 79.5 36.1 79.5zM34.6 32.7v13.5H28V32.7H34.6zM36.1 46.2V32.7h0.4v13.5H36.1zM26.8 28.8h8.9c0.4 0 0.7 0.4 0.7 0.8v1.6H26.1l0-1.6C26.1 29.1 26.4 28.8 26.8 28.8zM26.1 32.7h0.4v13.5h-0.4L26.1 32.7zM24.6 82.2c-0.7 0-1.3-0.5-1.4-1.2h2.9C26 81.7 25.4 82.2 24.6 82.2zM37.9 53.7c0 0.4-0.3 0.7-0.7 0.7H23.6c-0.4 0-0.7-0.3-0.7-0.7 0-0.4 0.3-0.7 0.7-0.7h13.6C37.6 53 37.9 53.3 37.9 53.7zM23.6 75c-0.4 0-0.7-0.3-0.7-0.7 0-0.4 0.3-0.7 0.7-0.7h12.1c0.4 0 0.7 0.3 0.7 0.7 0 0.4-0.3 0.7-0.7 0.7H23.6zM44.9 43.3c0-0.4 0.3-0.7 0.7-0.7h4.5c6.8 0 13.2-3 17.5-8.3 0.3-0.3 0.7-0.4 1-0.1 0.3 0.3 0.4 0.7 0.1 1C64.2 40.8 57.4 44 50.2 44h-4.5C45.3 44 44.9 43.7 44.9 43.3zM78.8 24.4c0.9 2 1.8 3.9 2.7 5.8 0.4 0.8 0.3 1.6-0.2 2.5-0.2 0.3-0.4 0.4-0.7 0.5 0 0-0.1 0-0.1 0-0.2 0-0.5-0.1-0.7-0.3-0.1-0.1-0.1-0.1-0.2-0.2-0.7-0.9-1.4-1.7-2-2.6-0.6-0.8-1.2-1.5-1.8-2.3-0.2-0.3-0.2-0.8 0.1-1 0.3-0.2 0.8-0.2 1 0.1 0.6 0.8 1.2 1.6 1.8 2.3 0.5 0.7 1.1 1.4 1.7 2.2 0-0.2 0-0.4-0.1-0.5-0.9-1.9-1.8-3.8-2.7-5.8-0.2-0.4 0-0.8 0.4-1C78.2 23.9 78.7 24.1 78.8 24.4zM64.9 23.3c-0.2-0.3-0.2-0.7-0.1-1 0.1-0.5 0.6-1.2 2.2-1.2 1.7 0.1 5 0 6.6 0 0.3 0 0.5 0 0.6 0 0.5-0.7 1.9-2.5 2.3-3 0.8-1.1 2.3-2.2 3.5-1.5 1 0.6 1 1.8 0 3.6-0.5 0.9-5.8 8.4-7.1 10.2 0 0.1 0.1 0.4 0.2 0.7 0.1 0.4 0.3 1 0.3 1.2 0.1 0.4 0.3 1.3-0.3 1.9-0.2 0.2-0.5 0.4-0.9 0.4-0.2 0-0.5-0.1-0.7-0.2l-2.3-2.1c-0.3-0.3-0.3-0.7 0-1 0.3-0.3 0.7-0.3 1 0l1.9 1.7c0-0.1 0-0.1 0-0.2-0.1-0.2-0.2-0.7-0.3-1.2-0.2-0.6-0.2-0.8-0.2-0.9 0-0.2-0.1-0.6 0.2-0.9 1.7-2.3 6.7-9.4 7.1-10.2 0.7-1.2 0.6-1.6 0.5-1.7-0.2-0.1-1 0.3-1.6 1.1-0.5 0.7-2.6 3.3-2.6 3.3-0.2 0.2-0.4 0.3-0.7 0.3 0 0-0.4 0-0.9 0-1.6 0-5 0-6.6 0-0.2 0-0.4 0-0.5 0.1 1.3 0.3 4.6 1.2 6.5 1.7 0.4 0.1 0.6 0.5 0.5 0.9-0.1 0.4-0.5 0.6-0.9 0.5-2.2-0.6-6.5-1.7-6.9-1.8C65.4 23.8 65.1 23.6 64.9 23.3z" fill="#ffffff" data-fill-palette-color="accent"></path></svg></g></svg></g></svg></g></svg></g><g><path d="M245.816 0c68.262 0 123.6 55.338 123.6 123.6 0 68.262-55.338 123.6-123.6 123.6-52.13 0-96.723-32.273-114.888-77.929l1.376 0c18.096 44.935 62.1 76.652 113.512 76.652 67.557 0 122.323-54.766 122.323-122.323 0-67.557-54.766-122.323-122.323-122.323-51.412 0-95.416 31.717-113.512 76.652l-1.376 0c18.165-45.656 62.758-77.929 114.888-77.929z" fill="#ffffff" stroke="transparent" data-fill-palette-color="tertiary"></path></g></svg></g><defs></defs></svg><rect width="395.52" height="247.2" fill="none" stroke="none" visibility="hidden"></rect></g></svg></g></svg>